<svg xmlns="http://www.w3.org/2000/svg" xmlns:xlink="http://www.w3.org/1999/xlink" width="1665" height="936" viewBox="0 0 1665 936"><defs><style>.a{fill:#10223c;}.b{fill:url(#a);}.af,.bv,.c,.d,.e,.f,.g,.k,.l{fill:#fff;}.bp,.c{font-size:15px;}.c,.e,.k,.l,.s{font-family:FuturaPT-Medium, Futura PT;font-weight:500;}.c,.e,.l{opacity:0.42;}.d{font-size:27px;}.bj,.d,.f,.j{font-family:FuturaPT-Bold, Futura PT;font-weight:700;}.e{font-size:16px;}.f,.j{font-size:20px;}.g,.s{font-size:10px;}.bh,.g{font-family:FuturaPT-Book, Futura PT;}.g{opacity:0.68;}.bi,.h{fill:#f0b90b;}.h{opacity:0.2;}.i{fill:#0c1b30;stroke:#64592f;}.bj,.j,.s{fill:#f6d869;}.bt,.bw,.k{font-size:14px;}.l{font-size:12px;}.bk,.bm,.m{fill:none;}.m{stroke:#f0b90b;stroke-linecap:round;}.n{fill:#bdf2df;}.o{fill:#81dbba;}.p{fill:#f9d366;}.q{fill:#d83;}.r{fill:#56ab8f;}.s{text-decoration:underline;}.t{fill:#ffcd34;}.u{fill:#e69012;}.v{fill:#d8e6f0;}.w{fill:#bdcdd6;}.x{fill:#7f56af;}.y{fill:#5e4487;}.z{fill:#9e71d3;}.aa{fill:#ffe45c;}.ab{fill:#cdd2e1;}.ac{fill:#afb4c8;}.ad{fill:#ffb13b;}.ae{fill:#9196aa;}.ag{fill:#231f20;}.ah{fill:#23f1a8;}.ai{fill:#22c683;}.aj{fill:#26d192;}.ak{fill:#9a5e5f;}.al{fill:#845152;}.am{fill:#3a363a;}.an{fill:#433f43;}.ao{fill:#554e55;}.ap{fill:#b88081;}.aq{fill:#1fbf7e;}.ar{fill:#3b5892;}.as{fill:#7bdf45;}.at{fill:#6649ea;}.au{fill:#6d5bf4;}.av{fill:#f0ae42;}.aw{fill:#f9d266;}.ax{fill:#6bc13b;}.ay{fill:#7d889e;}.az{fill:#cedff8;}.ba{fill:#c0d3f0;}.bb{fill:#a1b2ca;}.bc{fill:#94a7c5;}.bd{fill:#d65bf5;}.be{fill:#edb0ff;}.bf{fill:#ffcc57;}.bg,.bn{fill:#2b5287;}.bh,.bo,.bs{fill:#f6d76a;}.bh{font-size:33px;}.bi{opacity:0.41;}.bj{font-size:13px;}.bl{fill:#23436e;}.bm{stroke:#44699f;}.bn,.bo,.br{opacity:0;}.bp,.bq,.bt,.by{fill:#e1e1e1;}.bp,.bt,.bw{font-family:FuturaPT-Demi, Futura PT;font-weight:300;}.bu{fill:#1e3b63;}.bv{stroke:#23436e;}.bv,.by{stroke-width:0.4px;}.bw,.bx{fill:#d8d8d8;}.bx,.by{stroke:#e1e1e1;}.bx{stroke-width:0.2px;}.bz{stroke:none;}</style><linearGradient id="a" x1="0.674" y1="0.875" x2="0.219" y2="0.207" gradientUnits="objectBoundingBox"><stop offset="0" stop-color="#152e51"/><stop offset="1" stop-color="#23436e"/></linearGradient></defs><g transform="translate(-128 -2935)"><rect class="a" width="1665" height="936" transform="translate(128 2935)"/><rect class="a" width="1376" height="936" transform="translate(417 2935)"/><g transform="translate(503.712 3112.654)"><rect class="b" width="383" height="135" rx="10" transform="translate(0.288 0.345)"/><g transform="translate(120.949 31.782)"><text class="c" transform="translate(58.475 15)"><tspan x="0" y="0">TVL</tspan></text><text class="d" transform="translate(65 59.415)"><tspan x="-76.032" y="0">3,000,000$</tspan></text></g></g><g transform="translate(913.042 3112.654)"><rect class="b" width="384" height="135" rx="10" transform="translate(-0.042 0.345)"/><g transform="translate(141.386 31.639)"><text class="e" transform="translate(-0.428 15.707)"><tspan x="0" y="0">Your Balance:</tspan></text><text class="d" transform="translate(48.643 59.558)"><tspan x="-24.3" y="0">354</tspan></text></g></g><g transform="translate(1322.37 3112.654)"><rect class="b" width="384" height="135" rx="10" transform="translate(-0.37 0.345)"/><g transform="translate(136.308 37.851)"><text class="c" transform="translate(0 15)"><tspan x="0" y="0">Total Circulation</tspan></text><text class="d" transform="translate(52.087 59.415)"><tspan x="-40.379" y="0">31,415</tspan></text></g></g><g transform="translate(503.712 3278.759)"><rect class="b" width="383" height="423" rx="10" transform="translate(0.288 0.242)"/><g transform="translate(34.389 25.21)"><g transform="translate(81.603 111.886)"><text class="f" transform="translate(21.367 20)"><tspan x="0" y="0">CAKE Pool</tspan></text><text class="g" transform="translate(0 43.814)"><tspan x="0" y="0">Deposit BSCI-BNB LP Earn BSCI</tspan></text></g><g transform="translate(0.867 299.162)"><rect class="h" width="311.261" height="47.686" rx="23" transform="translate(2.601 1.734)"/><g class="i"><rect class="bz" width="311.261" height="47.686" rx="23.843"/><rect class="bk" x="0.5" y="0.5" width="310.261" height="46.686" rx="23.343"/></g><text class="j" transform="translate(127.729 28.67)"><tspan x="0" y="0">Select</tspan></text></g><g transform="translate(0 183.852)"><g transform="translate(14.68 13.869)"><text class="k" transform="translate(214.552 12)"><tspan x="0" y="0">1,503,231$</tspan></text><text class="l" transform="translate(0 12)"><tspan x="0" y="0">TVL</tspan></text></g><g transform="translate(14.588 60.688)"><text class="k" transform="translate(224.752 12)"><tspan x="0" y="0">4,115.88%</tspan></text><text class="l" transform="translate(0 12)"><tspan x="0" y="0">APR</tspan></text></g><g transform="translate(0 0)"><path class="m" d="M5648,7499.76h314.729" transform="translate(-5648 -7452.94)"/><path class="m" d="M5648,7499.76h314.729" transform="translate(-5648 -7499.76)"/><path class="m" d="M5648,7499.76h314.729" transform="translate(-5648 -7406.122)"/></g></g><g transform="translate(112.279)"><ellipse class="a" cx="45.085" cy="42.051" rx="45.085" ry="42.051" transform="translate(0 6.11)"/><g transform="translate(6.271)"><path class="n" d="M118.91,195.295c0,15.86-14.524,25.083-32.437,25.083A47.634,47.634,0,0,1,77,219.456c-13.294-2.7-22.966-11.219-22.966-24.161,0-10.782,6.717-24.063,16.647-31.462h31.584C112.193,171.23,118.91,184.511,118.91,195.295Z" transform="translate(-48.408 -136.631)"/><path class="o" d="M77,219.457c-13.294-2.7-22.966-11.219-22.966-24.161,0-10.782,6.717-24.063,16.647-31.462h8.531l.743,1.344S57.709,200.26,77,219.457Z" transform="translate(-48.408 -136.631)"/><path class="n" d="M174.909,89.943c0,5.539-8.29,10.027-18.516,10.027a31.708,31.708,0,0,1-8.553-1.127c-5.923-1.673-9.966-5.029-9.966-8.9,0-3.537,3.381-6.648,8.492-8.431h20.056C171.529,83.3,174.909,86.408,174.909,89.943Z" transform="translate(-118.327 -67.979)"/><path class="o" d="M152.911,81.513l-1.153,8.471s-7.843,1.907-3.921,8.855h0c-5.923-1.673-9.966-5.029-9.966-8.9,0-3.537,3.381-6.648,8.492-8.431Z" transform="translate(-118.326 -67.979)"/><path class="p" d="M209.062,26.071V41.027c0,1.693-4.49,3.066-10.027,3.066a29.7,29.7,0,0,1-4.632-.347c-3.208-.512-5.4-1.537-5.4-2.72V26.071Z" transform="translate(-160.969 -21.742)"/><g transform="translate(28.036 1.262)"><path class="q" d="M194.4,26.071V43.747c-3.208-.512-5.4-1.537-5.4-2.72V26.071Z" transform="translate(-189.006 -23.005)"/><ellipse class="q" cx="10.028" cy="3.066" rx="10.028" ry="3.066" transform="translate(0 0)"/></g><path class="r" d="M118.91,304.115c0,15.86-14.524,25.083-32.437,25.083s-32.438-9.223-32.438-25.083a33.191,33.191,0,0,1,1.607-9.8H117.3A33.207,33.207,0,0,1,118.91,304.115Z" transform="translate(-48.408 -245.452)"/><ellipse class="o" cx="30.846" cy="9.892" rx="30.846" ry="9.892" transform="translate(7.219 39.684)"/><g transform="translate(41.193 35.235)"><path class="p" d="M350.069,227.221l3.274-.664a1.446,1.446,0,0,0,0-2.835l-3.274-.664a8.192,8.192,0,0,1-6.4-6.4L343,213.382a1.446,1.446,0,0,0-2.835,0l-.664,3.274a8.193,8.193,0,0,1-6.4,6.4l-3.274.664a1.447,1.447,0,0,0,0,2.835l3.274.664a8.193,8.193,0,0,1,6.4,6.4l.664,3.274a1.446,1.446,0,0,0,2.835,0l.664-3.274a8.192,8.192,0,0,1,6.4-6.4Z" transform="translate(-318.638 -212.222)"/><path class="p" d="M283.4,345.367l1.023-.207a1.264,1.264,0,0,0,0-2.478l-1.023-.207a6.547,6.547,0,0,1-5.115-5.115l-.207-1.023a1.264,1.264,0,0,0-2.478,0l-.207,1.023a6.546,6.546,0,0,1-5.115,5.115l-1.023.207a1.264,1.264,0,0,0,0,2.478l1.023.207a6.547,6.547,0,0,1,5.115,5.115l.207,1.023a1.264,1.264,0,0,0,2.478,0l.207-1.023a6.546,6.546,0,0,1,5.115-5.115Z" transform="translate(-268.243 -314.882)"/></g><path d="M58.606,135.057a1.262,1.262,0,0,0,1.262-1.262v-3.346a1.262,1.262,0,0,0-2.525,0v3.345a1.262,1.262,0,0,0,1.262,1.263Z" transform="translate(-51.168 -107.737)"/><path d="M58.606,189.307a1.262,1.262,0,0,0,1.262-1.262V184.7a1.262,1.262,0,0,0-2.525,0v3.346a1.262,1.262,0,0,0,1.262,1.262Z" transform="translate(-51.168 -152.979)"/><path d="M75.657,168.913H79a1.262,1.262,0,1,0,0-2.525H75.657a1.262,1.262,0,1,0,0,2.525Z" transform="translate(-65.388 -138.761)"/><path d="M26.015,167.649a1.262,1.262,0,0,0-1.262-1.262H21.406a1.262,1.262,0,1,0,0,2.525h3.346a1.262,1.262,0,0,0,1.262-1.262Z" transform="translate(-20.144 -138.761)"/><path d="M433.727,34.818a1.262,1.262,0,0,0,1.262-1.262V30.206a1.262,1.262,0,0,0-2.525,0v3.346a1.262,1.262,0,0,0,1.262,1.266Z" transform="translate(-364.006 -24.141)"/><path d="M433.727,89.069a1.262,1.262,0,0,0,1.262-1.262V84.46a1.262,1.262,0,0,0-2.525,0v3.346A1.262,1.262,0,0,0,433.727,89.069Z" transform="translate(-364.006 -69.385)"/><path d="M450.777,68.673h3.346a1.262,1.262,0,1,0,0-2.525h-3.346a1.262,1.262,0,1,0,0,2.525Z" transform="translate(-378.225 -55.165)"/><path d="M396.526,68.673h3.346a1.262,1.262,0,1,0,0-2.525h-3.346a1.262,1.262,0,1,0,0,2.525Z" transform="translate(-332.981 -55.165)"/><path d="M48.959,204.506a28.926,28.926,0,0,1,.564-5.516c4.407,4.949,17.836,7.583,30.611,7.583,1.373,0,2.757-.029,4.111-.087a1.263,1.263,0,1,0-.107-2.523c-1.319.055-2.666.087-4,.087-8.112,0-15.721-1.007-21.426-2.837-5.108-1.638-8.158-3.8-8.158-5.793,0-1.2,1.171-2.528,3.3-3.742A35.125,35.125,0,0,1,63.871,188.3a1.263,1.263,0,1,0-.5-2.474,37.416,37.416,0,0,0-10.592,3.568,43.784,43.784,0,0,1,8.812-12.345,1.263,1.263,0,0,0-1.756-1.815,46.212,46.212,0,0,0-9.739,13.9,37.647,37.647,0,0,0-3.659,15.37A23.612,23.612,0,0,0,49.2,215.838a1.262,1.262,0,0,0,2.223-1.2,21.122,21.122,0,0,1-2.464-10.135Z" transform="translate(-42.069 -145.841)"/><path d="M139.764,332.7a1.262,1.262,0,0,0-1.16,1.358c.055.7.087,1.393.087,2.064a20.932,20.932,0,0,1-8.987,17.473c-5.606,4.095-13.487,6.35-22.191,6.35-11.063,0-20.554-3.59-26.038-9.847a1.262,1.262,0,1,0-1.9,1.664c5.963,6.8,16.146,10.708,27.936,10.708,9.236,0,17.646-2.428,23.68-6.836a23.368,23.368,0,0,0,10.018-19.508c0-.736-.03-1.5-.087-2.262a1.262,1.262,0,0,0-1.361-1.164Z" transform="translate(-69.448 -277.46)"/><path d="M356.87,173.126a1.262,1.262,0,0,0,.053,1.784,40.159,40.159,0,0,1,3.035,3.2,1.263,1.263,0,1,0,1.924-1.636,42.65,42.65,0,0,0-3.224-3.4,1.262,1.262,0,0,0-1.788.053Z" transform="translate(-300.676 -144.05)"/><path d="M278.282,54.466a1.262,1.262,0,1,0-.52,1.568,1.262,1.262,0,0,0,.52-1.568Z" transform="translate(-233.4 -44.786)"/><path d="M244.247,59.58a1.262,1.262,0,1,0-.52,1.567,1.262,1.262,0,0,0,.52-1.567Z" transform="translate(-205.016 -49.054)"/><path d="M265.216,79.9a1.262,1.262,0,1,0-.52,1.567A1.262,1.262,0,0,0,265.216,79.9Z" transform="translate(-222.499 -65.985)"/><path d="M349.445,338.523a1.263,1.263,0,0,0,.277-.031c1.066-.239,2.1-.5,3.069-.78a1.264,1.264,0,0,0-.7-2.428c-.921.266-1.907.52-2.92.746a1.263,1.263,0,0,0,.275,2.5Z" transform="translate(-293.718 -279.572)"/><path d="M205.2,236.013a1.262,1.262,0,0,0,.3-2.487,81.181,81.181,0,0,0-19.223-2.116,91.819,91.819,0,0,0-11.462.694,1.262,1.262,0,0,0,.316,2.5,89.306,89.306,0,0,1,11.145-.675,78.639,78.639,0,0,1,18.612,2.041,1.266,1.266,0,0,0,.307.039Z" transform="translate(-148.221 -192.987)"/><path d="M150.05,33.255a33.6,33.6,0,0,0,7.489-.82,1.263,1.263,0,0,0-.564-2.461,31.086,31.086,0,0,1-6.925.756c-9.353,0-17.254-4.013-17.254-8.765,0-2.468,2.244-4.9,5.966-6.573V19.08c-.362-.155-.709-.317-1.04-.489a1.262,1.262,0,1,0-1.169,2.238c3.388,1.77,8.308,2.785,13.5,2.785s10.11-1.015,13.5-2.786a1.263,1.263,0,1,0-1.17-2.238c-.329.173-.678.334-1.04.49V15.392c3.721,1.673,5.965,4.106,5.965,6.573,0,2.35-1.994,4.664-5.478,6.347a1.262,1.262,0,1,0,1.1,2.273c4.388-2.121,6.9-5.263,6.9-8.62,0-3.786-3.156-7.224-8.49-9.309V4.333c0-3.42-7.1-4.333-11.29-4.333S138.76.912,138.76,4.329v8.323c-5.334,2.081-8.491,5.521-8.491,9.309C130.269,28.3,138.957,33.255,150.05,33.255Zm0-12.166c-.243,0-.483,0-.724-.009-5.011-.108-7.69-1.311-8.041-1.861V7.226a24.29,24.29,0,0,0,8.765,1.431,24.216,24.216,0,0,0,8.765-1.431V19.218c-.347.551-3.029,1.754-8.041,1.861-.242.005-.482.009-.725.009Zm0-18.564c5.278,0,8.179,1.2,8.714,1.8-.535.607-3.437,1.8-8.714,1.8s-8.179-1.2-8.714-1.8c.534-.6,3.439-1.8,8.713-1.8Z" transform="translate(-111.984)"/><path d="M347.25,216.142l-3.274-.664a6.918,6.918,0,0,1-5.415-5.415l-.664-3.274a2.709,2.709,0,0,0-5.311,0l-.664,3.274a6.918,6.918,0,0,1-5.415,5.415l-3.274.664a2.709,2.709,0,0,0,0,5.311l3.274.664a6.918,6.918,0,0,1,5.415,5.415l.664,3.274a2.709,2.709,0,0,0,5.311,0l.664-3.274a6.918,6.918,0,0,1,5.415-5.415l3.274-.664a2.709,2.709,0,0,0,0-5.311Zm-.5,2.835-3.274.664a9.437,9.437,0,0,0-7.388,7.388l-.664,3.274c-.013.062-.03.147-.18.147s-.168-.087-.18-.147l-.664-3.274a9.438,9.438,0,0,0-7.388-7.388l-3.274-.664c-.062-.013-.147-.029-.147-.18s.087-.168.147-.18l3.274-.663a9.438,9.438,0,0,0,7.388-7.388l.664-3.274c.013-.062.029-.147.18-.147s.168.087.18.147l.664,3.274a9.438,9.438,0,0,0,7.389,7.39l3.274.664c.062.013.147.029.147.18s-.085.166-.147.178Z" transform="translate(-271.101 -170.645)"/><path d="M273.182,330.767l-.207-1.023a2.527,2.527,0,0,0-4.952,0l-.207,1.023a5.274,5.274,0,0,1-4.129,4.132l-1.023.207a2.527,2.527,0,0,0,0,4.952l1.023.207a5.274,5.274,0,0,1,4.129,4.129l.207,1.023a2.526,2.526,0,0,0,4.952,0l.207-1.023a5.275,5.275,0,0,1,4.129-4.129l1.023-.207a2.527,2.527,0,0,0,0-4.952l-1.023-.207a5.275,5.275,0,0,1-4.129-4.132Zm4.651,6.81h0l-1.023.207a7.794,7.794,0,0,0-6.1,6.1l-.207,1.023h0l-.207-1.023a7.794,7.794,0,0,0-6.1-6.1l-1.023-.207h0l1.023-.207a7.8,7.8,0,0,0,6.1-6.1l.207-1.023h0l.207,1.023a7.8,7.8,0,0,0,6.1,6.1Z" transform="translate(-220.708 -273.306)"/></g></g><text class="s" transform="translate(119.654 366.373)"><tspan x="0" y="0">buy on pancake</tspan></text></g></g><g transform="translate(913.042 3278.759)"><rect class="b" width="384" height="423" rx="10" transform="translate(-0.042 0.242)"/><g transform="translate(34.293 23.163)"><g transform="translate(79.26 113.934)"><text class="f" transform="translate(24.967 20)"><tspan x="0" y="0">BUSD Pool</tspan></text><text class="g" transform="translate(0 43.814)"><tspan x="0" y="0">Deposit BUSD-BNB LP Earn BSCI</tspan></text></g><g transform="translate(0 185.9)"><g transform="translate(14.68 13.869)"><text class="k" transform="translate(229.395 12)"><tspan x="0" y="0">703,212$</tspan></text><text class="l" transform="translate(0 12)"><tspan x="0" y="0">TVL</tspan></text></g><g transform="translate(14.588 60.688)"><text class="k" transform="translate(241.478 12)"><tspan x="0" y="0">1,806%</tspan></text><text class="l" transform="translate(0 12)"><tspan x="0" y="0">APR</tspan></text></g><g transform="translate(0 0)"><path class="m" d="M5648,7499.76h314.729" transform="translate(-5648 -7452.94)"/><path class="m" d="M5648,7499.76h314.729" transform="translate(-5648 -7499.76)"/><path class="m" d="M5648,7499.76h314.729" transform="translate(-5648 -7406.122)"/></g></g><text class="s" transform="translate(119.654 368.42)"><tspan x="0" y="0">buy on pancake</tspan></text><g transform="translate(112.772)"><ellipse class="a" cx="45.085" cy="42.051" rx="45.085" ry="42.051" transform="translate(0 10.204)"/><g transform="translate(15.115)"><path class="t" d="M123.916,10.153l2.727,11.409h12.783l2.726-11.409A2.152,2.152,0,0,0,140.059,7.5H126.013a2.153,2.153,0,0,0-2.094,2.653Zm0,0" transform="translate(-103.064 -6.236)"/><path class="u" d="M197.109,7.5H193.1a2.153,2.153,0,0,1,2.094,2.653L192.47,21.562h4L199.2,10.153A2.153,2.153,0,0,0,197.109,7.5Zm0,0" transform="translate(-160.114 -6.236)"/><path class="v" d="M65.366,137.244c-.559-4.923-11.576-15.173-16.915-19.876a8.42,8.42,0,0,1-2.853-6.318V100.941h.724a5.008,5.008,0,1,0,0-10.016H27.084a5.008,5.008,0,1,0,0,10.016h.725v10.109a8.42,8.42,0,0,1-2.854,6.318c-5.337,4.7-16.354,14.953-16.913,19.876-.816,7.183,9.77,23.393,17,23.393H48.364c7.229,0,17.816-16.213,17-23.393Zm0,0" transform="translate(-6.734 -75.6)"/><path class="w" d="M232,137.244c-.559-4.923-11.576-15.173-16.915-19.876a8.42,8.42,0,0,1-2.853-6.318V100.941h.725a5.008,5.008,0,1,0,0-10.016h-3.82a5.008,5.008,0,1,1,0,10.016h-.725v10.109a8.42,8.42,0,0,0,2.854,6.318c5.339,4.7,16.355,14.952,16.914,19.876.815,7.183-9.77,23.393-17,23.393H215C222.228,160.637,232.813,144.427,232,137.244Zm0,0" transform="translate(-173.365 -75.6)"/><path class="x" d="M83.292,323.488c-.037-.173-.57-2.2-5.683-7.677q-.716-.766-1.459-1.528a5.4,5.4,0,0,1-.867,4.422c-1.214,1.4-3.309,1.548-5.158,1.446-6.2-.341-12.264-1.943-18.3-3.406-3.937-.954-9.547-2.466-11.98-.021-4.552,4.574-4.8,6.595-4.84,6.763-.1.94.3,3.1,1.734,6.152a35.524,35.524,0,0,0,5.4,8.193c2.9,3.251,4.849,3.964,5.355,3.964H70.807c.5,0,2.451-.713,5.355-3.964a35.558,35.558,0,0,0,5.4-8.192c1.433-3.047,1.827-5.211,1.73-6.152Zm0,0" transform="translate(-29.177 -261.307)"/><path class="y" d="M238.465,323.488c-.037-.173-.571-2.2-5.683-7.677q-.716-.766-1.459-1.528a5.8,5.8,0,0,1-.607,4.1c2.995,3.555,3.362,4.96,3.394,5.105.1.94-.3,3.1-1.734,6.152a35.526,35.526,0,0,1-5.4,8.192c-2.9,3.251-4.85,3.964-5.355,3.964h4.36c.5,0,2.451-.713,5.355-3.964a35.537,35.537,0,0,0,5.4-8.193C238.168,326.59,238.562,324.426,238.465,323.488Zm0,0" transform="translate(-184.353 -261.307)"/><g transform="translate(16.261 50.488)"><path class="z" d="M167.78,307.866c1.849.1,3.941-.051,5.158-1.446a5.431,5.431,0,0,0,.867-4.422c-1.345-1.345-6.5-6.292-21.359,3.188a84.921,84.921,0,0,0,15.338,2.688Zm0,0" transform="translate(-143.092 -299.507)"/><path class="z" d="M101.408,363.884a2.22,2.22,0,1,1-2.22-2.22,2.22,2.22,0,0,1,2.22,2.22Zm0,0" transform="translate(-96.969 -351.19)"/><path class="z" d="M172.849,420.772a2.655,2.655,0,1,1-2.655-2.655,2.655,2.655,0,0,1,2.655,2.655Zm0,0" transform="translate(-155.643 -398.128)"/></g><path d="M60.39,61.5c-.564-4.965-9.738-13.989-17.334-20.682a7.156,7.156,0,0,1-2.428-5.369V26.583a6.272,6.272,0,0,0-.539-12.521H38.464l2.352-9.851A3.418,3.418,0,0,0,37.5,0H23.45a3.417,3.417,0,0,0-3.323,4.21l2.355,9.851H20.851a6.272,6.272,0,0,0-.539,12.522V35.45a7.158,7.158,0,0,1-2.428,5.369c-.546.483-1.094.971-1.627,1.452A1.264,1.264,0,1,0,17.95,44.15c.526-.475,1.066-.954,1.607-1.432a9.688,9.688,0,0,0,3.281-7.267V25.342a1.263,1.263,0,0,0-1.264-1.264h-.725a3.744,3.744,0,1,1,0-7.487H40.091a3.744,3.744,0,1,1,0,7.487H30.467a1.264,1.264,0,1,0,0,2.528H38.1V35.45a9.688,9.688,0,0,0,3.281,7.266C51.349,51.5,57.514,58.631,57.872,61.791c.447,3.931-3.114,11.524-7.938,16.926-2.872,3.217-5.717,5.062-7.8,5.062H18.808c-2.089,0-4.933-1.845-7.8-5.062-4.825-5.406-8.386-13-7.94-16.93.166-1.466,1.844-5.265,11.209-14.219a1.264,1.264,0,0,0-1.748-1.827,95.5,95.5,0,0,0-7.716,8.154C2.159,57.124.767,59.613.553,61.5-.034,66.669,4.446,75.166,9.117,80.4c4.359,4.881,7.677,5.905,9.692,5.905H42.132c2.016,0,5.334-1.025,9.692-5.905,4.67-5.231,9.15-13.728,8.564-18.895ZM25.078,14.062,22.583,3.622a.887.887,0,0,1,.867-1.094H37.5a.888.888,0,0,1,.867,1.094l-2.5,10.44Zm0,0" transform="translate(-0.501)"/><path d="M74.782,312.256a1.265,1.265,0,0,0,1.682-.607c1.308-2.781,1.994-5.33,1.843-6.819a1.255,1.255,0,0,0-.023-.14c-.124-.566-.921-2.837-6-8.27-.464-.5-.954-1.014-1.468-1.536l-.022-.023a9.342,9.342,0,0,0-6.42-2.833c-4.311-.286-9.711,1.584-16.055,5.56-5.4-1.318-12.384-3.529-15.618-.279-4.061,4.081-4.989,6.38-5.182,7.4a1.136,1.136,0,0,0-.019.123c-.154,1.489.535,4.039,1.844,6.819a36.818,36.818,0,0,0,5.6,8.5c3.728,4.175,5.9,4.386,6.3,4.386H64.567c.4,0,2.571-.212,6.3-4.386a34.679,34.679,0,0,0,2.924-3.8,1.264,1.264,0,1,0-2.1-1.405,32.159,32.159,0,0,1-2.708,3.521c-2.369,2.652-4.026,3.456-4.457,3.542H41.286c-.434-.087-2.089-.889-4.457-3.542a34.185,34.185,0,0,1-5.193-7.89,13.6,13.6,0,0,1-1.621-5.433c.072-.317.634-2.18,4.482-6.047,3.242-3.257,15.53,2.8,28.25,3.728,3.888.3,7.421-.161,8.343-3.967,3.815,4.189,4.582,5.982,4.706,6.329a13.927,13.927,0,0,1-1.624,5.388,1.264,1.264,0,0,0,.607,1.682Zm-6.076-15.894c.4,3.7-1.757,4.217-5.434,3.962a74.235,74.235,0,0,1-11.428-1.893c9.5-5.4,14.379-4.268,16.861-2.07Zm0,0" transform="translate(-22.937 -242.783)"/><path d="M153.737,19.875a1.263,1.263,0,0,0-1.264,1.264v.675a1.264,1.264,0,1,0,2.528,0v-.675a1.264,1.264,0,0,0-1.264-1.264Zm0,0" transform="translate(-126.857 -16.525)"/><path d="M190.406,31.578a1.263,1.263,0,0,0-1.264,1.264v.675a1.264,1.264,0,1,0,2.528,0v-.675A1.264,1.264,0,0,0,190.406,31.578Zm0,0" transform="translate(-157.341 -26.255)"/><path d="M176.737,60.5a1.263,1.263,0,0,0-1.264,1.264v.675a1.264,1.264,0,1,0,2.528,0v-.675A1.264,1.264,0,0,0,176.737,60.5Zm0,0" transform="translate(-145.98 -50.302)"/><path d="M92.956,356.692a1.264,1.264,0,1,0,0-2.528,3.484,3.484,0,1,0,3.484,3.484,1.264,1.264,0,1,0-2.528,0,.954.954,0,1,1-.954-.954Zm0,0" transform="translate(-74.476 -294.466)"/><path d="M163.958,415.927a1.392,1.392,0,0,1-1.387-1.387,1.264,1.264,0,1,0-2.528,0,3.919,3.919,0,1,0,3.919-3.919,1.264,1.264,0,0,0,0,2.528,1.391,1.391,0,1,1,0,2.781Zm0,0" transform="translate(-133.148 -341.404)"/></g></g><g transform="translate(1.3 301.137)"><g transform="translate(0 0)"><rect class="h" width="311" height="47" rx="23" transform="translate(2.364 1.942)"/><g class="i" transform="translate(0.364 -0.058)"><rect class="bz" width="311" height="48" rx="24"/><rect class="bk" x="0.5" y="0.5" width="310" height="47" rx="23.5"/></g><text class="j" transform="translate(127.295 28.703)"><tspan x="0" y="0">Select</tspan></text></g></g></g></g><g transform="translate(1322.37 3278.759)"><rect class="b" width="384" height="423" rx="10" transform="translate(-0.37 0.242)"/><g transform="translate(34.199 25.21)"><g transform="translate(79.424 111.886)"><text class="f" transform="translate(22.917 20)"><tspan x="0" y="0">Wault Pool</tspan></text><text class="g" transform="translate(0 43.814)"><tspan x="0" y="0">Deposit Wault-BNB LP Earn BSCI</tspan></text></g><g transform="translate(0 183.852)"><g transform="translate(14.68 13.869)"><text class="k" transform="translate(226.638 12)"><tspan x="0" y="0">793,557$</tspan></text><text class="l" transform="translate(0 12)"><tspan x="0" y="0">TVL</tspan></text></g><g transform="translate(14.588 60.688)"><text class="k" transform="translate(242.952 12)"><tspan x="0" y="0">1,130%</tspan></text><text class="l" transform="translate(0 12)"><tspan x="0" y="0">APR</tspan></text></g><g transform="translate(0 0)"><path class="m" d="M5648,7499.76h314.729" transform="translate(-5648 -7452.94)"/><path class="m" d="M5648,7499.76h314.729" transform="translate(-5648 -7499.76)"/><path class="m" d="M5648,7499.76h314.729" transform="translate(-5648 -7406.122)"/></g></g><text class="s" transform="translate(119.654 366.373)"><tspan x="0" y="0">buy on pancake</tspan></text><g transform="translate(112.279)"><ellipse class="a" cx="45.085" cy="42.051" rx="45.085" ry="42.051" transform="translate(0 10.348)"/><g transform="translate(11.949)"><path class="aa" d="M68.957,239.25A31.879,31.879,0,1,1,7.572,251.323a31.559,31.559,0,0,1,1.381-9.3H36.79l3.988,3.988,6.641-6.641H68.669Zm0,0" transform="translate(-6.311 -199.599)"/><path class="ab" d="M75.907,99.452l-.292.12H54.365l-6.641,6.641-3.988-3.988H15.9A31.906,31.906,0,0,1,39.755,80.353l1.328-8.67H51.708l1.327,8.67a31.98,31.98,0,0,1,22.87,19.1Zm0,0" transform="translate(-13.26 -59.801)"/><path class="ac" d="M151.683,7.566V18.192H127.777V7.566Zm0,0" transform="translate(-106.595 -6.312)"/><path class="ad" d="M20.851,265.3a31.56,31.56,0,0,1,1.382-9.3H8.951a31.56,31.56,0,0,0-1.381,9.3,31.879,31.879,0,0,0,38.516,31.177A31.893,31.893,0,0,1,20.851,265.3Zm0,0" transform="translate(-6.31 -213.573)"/><path class="ac" d="M53.037,80.353l-1.328-8.67H41.084l-1.328,8.67A31.906,31.906,0,0,0,15.9,102.227H29.184A31.906,31.906,0,0,1,53.037,80.353Zm0,0" transform="translate(-13.261 -59.801)"/><path class="ab" d="M376.207,239.37h.339c-.016-.04-.029-.081-.046-.12Zm0,0" transform="translate(-313.853 -199.599)"/><path class="ae" d="M127.777,7.566h13.285V18.192H127.777Zm0,0" transform="translate(-106.595 -6.312)"/><path class="af" d="M191.891,32.055h2.657v2.508h-2.657Zm0,0" transform="translate(-160.083 -26.743)"/><path class="af" d="M73.246,337.259A25.19,25.19,0,0,1,48.086,312.1h2.508a22.679,22.679,0,0,0,22.653,22.653Zm0,0" transform="translate(-40.11 -260.374)"/><path class="af" d="M344.156,264.461h2.657v2.508h-2.657Zm0,0" transform="translate(-287.113 -220.632)"/><g transform="translate(0)"><path class="ag" d="M63.8,39.175A33.143,33.143,0,0,0,40.88,19.518L39.9,13.134h6.434V0H31.8V2.509H43.828v8.117H22.43V2.509h5.387V0h-7.9V13.134h6.435l-.979,6.383A33.12,33.12,0,0,0,11.22,76.572L12.88,74.69a30.647,30.647,0,0,1-9.3-31.009H29.954l4.5,4.509,7.158-7.165h15.42V38.517H40.576l-6.121,6.121-3.468-3.468H4.382A30.563,30.563,0,0,1,26.751,21.778l.85-.18,1.3-8.466h8.471l1.3,8.466.848.18A30.619,30.619,0,1,1,16.2,77.244l-1.387,2.089A33.143,33.143,0,0,0,63.8,39.175Zm0,0" transform="translate(0.007)"/><path class="ag" d="M223.945,32.055H226.6v2.508h-2.657Zm0,0" transform="translate(-186.825 -26.743)"/><path class="ag" d="M159.832,32.055h2.66v2.508h-2.657Zm0,0" transform="translate(-133.337 -26.743)"/><path class="ag" d="M215.93,448.781h2.657v2.508H215.93Zm0,0" transform="translate(-180.138 -374.404)"/><path class="ag" d="M247.988,448.781h2.657v2.508h-2.657Zm0,0" transform="translate(-206.884 -374.404)"/><path class="ag" d="M312.1,264.461h2.657v2.508H312.1Zm0,0" transform="translate(-260.368 -220.632)"/></g></g></g><g transform="translate(0.434 299.162)"><rect class="h" width="311.261" height="47.686" rx="23" transform="translate(2.601 1.734)"/><g class="i"><rect class="bz" width="311.261" height="47.686" rx="23.843"/><rect class="bk" x="0.5" y="0.5" width="310.261" height="46.686" rx="23.343"/></g><text class="j" transform="translate(127.729 28.67)"><tspan x="0" y="0">Select</tspan></text></g></g></g><g transform="translate(503.712 3732.58)"><path class="b" d="M10,0H373a10,10,0,0,1,10,10V138a0,0,0,0,1,0,0H0a0,0,0,0,1,0,0V10A10,10,0,0,1,10,0Z" transform="translate(0.288 0.419)"/><g transform="translate(146.668 28.318)"><g transform="translate(0 0)"><ellipse class="a" cx="45.085" cy="42.051" rx="45.085" ry="42.051" transform="translate(0 8.89)"/><g transform="translate(9.312)"><g transform="translate(0)"><path class="ah" d="M142.741,62.922a.8.8,0,0,1-.275-.751,5.444,5.444,0,0,0-6.868-6.184,5.45,5.45,0,0,0-4.13-2.866.817.817,0,0,1-.694-1.023A4.476,4.476,0,1,0,122,50.611a.8.8,0,0,1-.686.735,4.474,4.474,0,0,0-3.419,2.619.814.814,0,0,1-1.207.347,6.941,6.941,0,0,0-10.253,2.782.825.825,0,0,1-.954.466,5.442,5.442,0,0,0-6.849,5.6.826.826,0,0,1-.573.854A5.645,5.645,0,0,0,94.3,68.089s5.428,9.531,25.38,9.531,25.379-9.531,25.379-9.531A7.1,7.1,0,0,0,142.741,62.922Z" transform="translate(-84.154 -39.056)"/><g transform="translate(31.276 25.359)"><path class="ai" d="M234.433,170.159a1.226,1.226,0,0,1-1.164-1.609,4.659,4.659,0,0,0-4.422-6.114,1.225,1.225,0,1,1,0-2.449,7.11,7.11,0,0,1,6.748,9.332,1.225,1.225,0,0,1-1.163.841Z" transform="translate(-227.622 -159.986)"/></g><g transform="translate(16.852 25.404)"><path class="aj" d="M137.867,168.833a1.224,1.224,0,0,1-1.224-1.224,7.174,7.174,0,0,1,6.975-7.341,1.225,1.225,0,1,1,0,2.449,4.725,4.725,0,0,0-4.526,4.892A1.225,1.225,0,0,1,137.867,168.833Z" transform="translate(-136.641 -160.268)"/></g><path class="aj" d="M293.4,68.094s-1.708,3-6.727,5.636A11.952,11.952,0,0,0,289,71.1a7.1,7.1,0,0,0-2.314-5.169.8.8,0,0,1-.276-.752,5.444,5.444,0,0,0-6.329-6.31.807.807,0,0,1-.818-.347,5.453,5.453,0,0,0-3.848-2.39.817.817,0,0,1-.694-1.025,4.478,4.478,0,0,0-4.132-5.681,4.476,4.476,0,0,1,8.535,2.683.817.817,0,0,0,.694,1.025,5.448,5.448,0,0,1,4.129,2.861,5.444,5.444,0,0,1,6.869,6.184.8.8,0,0,0,.275.752A7.1,7.1,0,0,1,293.4,68.094Z" transform="translate(-232.498 -39.057)"/><g transform="translate(44.953)"><path class="ak" d="M328.258.226a2.353,2.353,0,0,0-3.132,1.122l-11.21,23.761h5.2L329.383,3.355a2.351,2.351,0,0,0-1.127-3.13Z" transform="translate(-313.917 -0.001)"/></g><g transform="translate(0 28.871)"><g transform="translate(12.663 34.22)"><g transform="translate(0 0)"><path class="ak" d="M113.5,413.628l-2.3-.937a1.607,1.607,0,0,1-.882-2.1l4.71-11.55a1.607,1.607,0,0,1,2.1-.882l2.3.937a1.607,1.607,0,0,1,.882,2.1l-4.71,11.549a1.607,1.607,0,0,1-2.1.883Z" transform="translate(-110.204 -398.042)"/><path class="al" d="M132.53,401.195l-2.958,7.255a30.409,30.409,0,0,1-4.846-3.208l2.527-6.2a1.607,1.607,0,0,1,2.095-.881l2.3.937a1.607,1.607,0,0,1,.883,2.1Z" transform="translate(-122.424 -398.042)"/></g><g transform="translate(35.493 0.003)"><path class="ak" d="M341.054,413.628l2.3-.937a1.607,1.607,0,0,0,.882-2.1l-4.71-11.549a1.607,1.607,0,0,0-2.1-.882l-2.3.937a1.608,1.608,0,0,0-.882,2.1l4.711,11.548A1.608,1.608,0,0,0,341.054,413.628Z" transform="translate(-334.128 -398.045)"/><path class="al" d="M342.051,405.24a30.2,30.2,0,0,1-4.846,3.208l-2.958-7.253a1.607,1.607,0,0,1,.883-2.095l2.3-.937a1.607,1.607,0,0,1,2.095.881Z" transform="translate(-334.127 -398.043)"/></g></g><g transform="translate(0 7.991)"><g transform="translate(57.172 0)"><path class="am" d="M397.948,246.452a6.936,6.936,0,1,1,6.936-6.936A6.936,6.936,0,0,1,397.948,246.452Zm0-11.42a4.485,4.485,0,1,0,4.485,4.485,4.485,4.485,0,0,0-4.485-4.485Z" transform="translate(-391.012 -232.58)"/></g><g transform="translate(0 0)"><path class="an" d="M37.255,246.452a6.936,6.936,0,1,1,6.936-6.936A6.936,6.936,0,0,1,37.255,246.452Zm0-11.42a4.485,4.485,0,1,0,4.485,4.485A4.485,4.485,0,0,0,37.255,235.033Z" transform="translate(-30.319 -232.58)"/></g></g><g transform="translate(9.327 0)"><path class="ao" d="M141.545,204.217c0,12.361-11.727,22.38-26.2,22.38s-26.194-10.022-26.194-22.38A19.752,19.752,0,0,1,92.2,193.739a5.462,5.462,0,0,0-.473-6.409,7.114,7.114,0,0,1-1.754-5.17c0,2.4,11.363,4.335,25.38,4.335s25.38-1.943,25.38-4.335a7.127,7.127,0,0,1-1.754,5.172,5.456,5.456,0,0,0-.475,6.406,19.747,19.747,0,0,1,3.043,10.48Z" transform="translate(-89.155 -182.156)"/><g transform="translate(8.337)"><circle class="an" cx="2.435" cy="2.435" r="2.435" transform="translate(7.443 32.954)"/><path class="an" d="M234.476,340.481a4.183,4.183,0,1,0-4.038,2.129,2.434,2.434,0,1,0,4.038-2.129Z" transform="translate(-213.185 -310.153)"/><path class="an" d="M161.2,216.545a4.737,4.737,0,0,1-5.8,4.613,3.468,3.468,0,1,1-6.178-2.272,4.813,4.813,0,0,1-4.429-4.686,4.736,4.736,0,0,1,.978-9.1h0c3.387.379,7.333.621,11.583.684a4.736,4.736,0,0,1,1.4,6.621A4.734,4.734,0,0,1,161.2,216.545Z" transform="translate(-141.755 -201.461)"/><path class="an" d="M264.227,204.216c0,12.361-11.727,22.38-26.2,22.38a30.712,30.712,0,0,1-3.086-.153c13.014-1.307,23.105-10.759,23.105-22.227a19.747,19.747,0,0,0-3.044-10.48,5.456,5.456,0,0,1,.475-6.406,7.676,7.676,0,0,0,1.321-2.254c4.105-.773,6.608-1.8,6.608-2.921a7.127,7.127,0,0,1-1.754,5.172,5.456,5.456,0,0,0-.475,6.406A19.746,19.746,0,0,1,264.227,204.216Z" transform="translate(-220.174 -182.156)"/></g></g><g transform="translate(32.675 36.595)"><path class="ap" d="M240.536,428.712h-2.482a1.607,1.607,0,0,1-1.607-1.607V414.63a1.607,1.607,0,0,1,1.607-1.607h2.482a1.607,1.607,0,0,1,1.607,1.607V427.1a1.607,1.607,0,0,1-1.607,1.608Z" transform="translate(-236.446 -413.023)"/></g></g><g transform="translate(39.45 20.876)"><path class="ah" d="M298.386,144.471a5.783,5.783,0,0,0-11.473,0Z" transform="translate(-285.69 -138.196)"/><g transform="translate(0 0)"><path class="aj" d="M280.412,139.2a1.226,1.226,0,0,1-1.214-1.378,7.007,7.007,0,0,1,13.9,0,1.225,1.225,0,0,1-2.428.306,4.558,4.558,0,0,0-9.043,0A1.225,1.225,0,0,1,280.412,139.2Z" transform="translate(-279.189 -131.694)"/></g></g><g transform="translate(24.949 58.222)"><circle class="ah" cx="2.435" cy="2.435" r="2.435" transform="translate(0 0)"/></g><path class="ah" d="M233.7,317.295a4.183,4.183,0,1,0-4.743,2.507.819.819,0,0,1,.6.546,2.434,2.434,0,1,0,4.237-2.266.8.8,0,0,1-.094-.787Z" transform="translate(-194.682 -262.15)"/><path class="aj" d="M246.6,319.987a2.433,2.433,0,0,1-4.039,1.359,2.428,2.428,0,0,0,.141-3.16.724.724,0,0,1-.087-.725,4.183,4.183,0,0,0-2.293-5.5,4.182,4.182,0,0,1,5.728,5.33.8.8,0,0,0,.093.786,2.428,2.428,0,0,1,.458,1.909Z" transform="translate(-207.028 -262.148)"/><path class="ah" d="M169.808,182.151A4.718,4.718,0,0,0,170.26,180a4.8,4.8,0,0,0-4.838-4.608H157.3a4.8,4.8,0,0,0-4.83,4.591,4.733,4.733,0,0,0,2.65,4.4.831.831,0,0,1,.442.616,4.658,4.658,0,0,0,3.347,4.016.81.81,0,0,1,.52,1.076,3.471,3.471,0,1,0,6.58,2.159.82.82,0,0,1,.848-.628,4.836,4.836,0,0,0,1.009-.038,4.734,4.734,0,0,0,2.179-8.452A.8.8,0,0,1,169.808,182.151Z" transform="translate(-133.108 -147.592)"/><path class="aj" d="M210.475,187.2a4.733,4.733,0,0,1-5.041,4.417.824.824,0,0,0-.853.628,3.468,3.468,0,0,1-6.269,1.04,3.481,3.481,0,0,0,2.121-2.335.954.954,0,0,1,.975-.681,4.919,4.919,0,0,0,.9-.044,4.733,4.733,0,0,0,2.3-8.357,1.027,1.027,0,0,1-.29-1.214,4.741,4.741,0,0,0,.388-2.01,4.623,4.623,0,0,0-.91-2.637.389.389,0,0,1,.31-.623,4.737,4.737,0,0,1,4.278,6.763.8.8,0,0,0,.237.972,4.728,4.728,0,0,1,1.859,4.08Z" transform="translate(-171.682 -147.586)"/><g transform="translate(37.578 15.601)"><path class="aj" d="M272.937,102.391a1.225,1.225,0,0,1-1.153-.812,1.073,1.073,0,0,0-2.021,0,1.224,1.224,0,1,1-2.305-.825,3.523,3.523,0,0,1,6.634,0,1.225,1.225,0,0,1-1.153,1.638Z" transform="translate(-267.385 -98.417)"/></g><g transform="translate(28.115 18.882)"><path class="aj" d="M214.068,123.364a1.225,1.225,0,0,1-1.153-.812,1.484,1.484,0,0,0-2.794,0,1.225,1.225,0,1,1-2.306-.825,3.934,3.934,0,0,1,7.406,0,1.225,1.225,0,0,1-1.152,1.638Z" transform="translate(-207.733 -119.12)"/></g><g transform="translate(26.415 31.572)"><path class="aj" d="M200.528,205.047a3.527,3.527,0,0,1-3.1-5.226A1.225,1.225,0,1,1,199.572,201a1.082,1.082,0,0,0,1.47,1.47,1.225,1.225,0,1,1,1.178,2.148A3.508,3.508,0,0,1,200.528,205.047Z" transform="translate(-196.988 -199.185)"/></g></g><g transform="translate(11.823 2.027)"><path class="aq" d="M109.728,23.832a5.952,5.952,0,0,1-1.451-.18A4.474,4.474,0,0,1,105,18.246a3.5,3.5,0,0,1,4.254-2.514,2.818,2.818,0,0,1,2.055,3.4,1.225,1.225,0,1,1-2.376-.6.366.366,0,0,0-.279-.434,1.047,1.047,0,0,0-1.281.74,2.022,2.022,0,0,0,1.494,2.433,3.413,3.413,0,0,0,4.162-2.434,5.256,5.256,0,0,0-.694-4.172,1.225,1.225,0,1,1,2.059-1.328,7.784,7.784,0,0,1,1.014,6.1,5.849,5.849,0,0,1-5.683,4.392Z" transform="translate(-104.875 -12.782)"/></g><g transform="translate(60.492 11.441)"><path class="aq" d="M418.487,82.948a4.389,4.389,0,0,1-1.073-.134,3.439,3.439,0,0,1-2.139-1.6,3.505,3.505,0,0,1-.378-2.649,2.821,2.821,0,0,1,1.275-1.734A2.775,2.775,0,0,1,418.3,76.5a1.225,1.225,0,0,1-.6,2.376.337.337,0,0,0-.26.042.384.384,0,0,0-.173.238,1.072,1.072,0,0,0,.114.81,1.007,1.007,0,0,0,.625.472,2.021,2.021,0,0,0,2.433-1.494,3.453,3.453,0,0,0-.369-2.61,3.322,3.322,0,0,0-2.064-1.552,5.255,5.255,0,0,0-4.172.694,1.224,1.224,0,1,1-1.328-2.057,7.783,7.783,0,0,1,6.1-1.015,5.753,5.753,0,0,1,3.578,2.688,5.889,5.889,0,0,1,.634,4.449,4.491,4.491,0,0,1-4.333,3.407Z" transform="translate(-411.951 -72.174)"/></g><g transform="translate(1.656 12.468)"><path class="aq" d="M46.836,90.94a1.22,1.22,0,0,1-.26-.028,7.784,7.784,0,0,1-5.029-3.594A5.865,5.865,0,0,1,43.614,79.3a4.487,4.487,0,0,1,3.381-.515A4.391,4.391,0,0,1,49.746,80.8a3.438,3.438,0,0,1,.378,2.648,3.506,3.506,0,0,1-1.606,2.141,2.82,2.82,0,0,1-2.128.323,2.774,2.774,0,0,1-1.734-1.278,1.225,1.225,0,1,1,2.1-1.257.337.337,0,0,0,.214.156.386.386,0,0,0,.29-.046,1.072,1.072,0,0,0,.492-.653,1.007,1.007,0,0,0-.109-.776,1.96,1.96,0,0,0-1.229-.9,2.053,2.053,0,0,0-1.548.238,3.413,3.413,0,0,0-1.216,4.665A5.256,5.256,0,0,0,47.1,88.52a1.225,1.225,0,0,1-.26,2.422Z" transform="translate(-40.735 -78.652)"/></g><g transform="translate(27.209 1.448)"><g transform="translate(2.52 0)"><path class="ah" d="M219.092,11.627h-.055a1.225,1.225,0,0,1-1.169-1.278V10.3a1.225,1.225,0,0,1,2.447.108v.049A1.224,1.224,0,0,1,219.092,11.627Z" transform="translate(-217.867 -9.13)"/></g><g transform="translate(2.528 5.232)"><path class="ah" d="M219.177,44.629h-.057a1.224,1.224,0,0,1-1.171-1.275v-.049a1.224,1.224,0,0,1,2.447.1v.049a1.224,1.224,0,0,1-1.223,1.172Z" transform="translate(-217.948 -42.133)"/></g><g transform="translate(0 2.648)"><path class="ah" d="M203.247,28.273h-.107a1.225,1.225,0,1,1,.121-2.447h.045a1.225,1.225,0,0,1-.059,2.448Z" transform="translate(-201.976 -25.825)"/></g><g transform="translate(5.008 2.634)"><path class="ah" d="M234.841,28.181h-.107a1.225,1.225,0,1,1,.121-2.447h.045a1.225,1.225,0,0,1-.059,2.448Z" transform="translate(-233.569 -25.733)"/></g></g></g></g></g></g><g transform="translate(913.042 3732.58)"><path class="b" d="M10,0H374a10,10,0,0,1,10,10V138a0,0,0,0,1,0,0H0a0,0,0,0,1,0,0V10A10,10,0,0,1,10,0Z" transform="translate(-0.042 0.419)"/><g transform="translate(146.572 27.942)"><g transform="translate(0 0)"><ellipse class="a" cx="45.085" cy="42.051" rx="45.085" ry="42.051" transform="translate(0 1.638)"/><g transform="translate(8.675)"><path class="ar" d="M10.373,41.745a9.373,9.373,0,1,1,9.373-9.373A9.373,9.373,0,0,1,10.373,41.745Zm0-16.4A7.029,7.029,0,1,0,17.4,32.373a7.029,7.029,0,0,0-7.029-7.029Z" transform="translate(-1 2.775)"/><path class="ar" d="M56.372,41.745a9.373,9.373,0,1,1,9.373-9.373A9.373,9.373,0,0,1,56.372,41.745Zm0-16.4A7.029,7.029,0,1,0,63.4,32.373a7.029,7.029,0,0,0-7.029-7.029Z" transform="translate(6.891 2.775)"/><path class="as" d="M53.09,17.373a7.029,7.029,0,0,0-11.23-7.651,4.652,4.652,0,0,0-8.127,1.81c-.054,0-.106-.016-.16-.016a5.821,5.821,0,0,0-2.408.53,3.509,3.509,0,0,0-6.9,0A5.837,5.837,0,0,0,16,17.373" transform="translate(1.573 0.202)"/><rect class="ar" width="46.819" height="6.936" rx="3" transform="translate(12.911 17.244)"/><path class="at" d="M55.862,22l3.413,5.688a25.378,25.378,0,0,1,0,26.114A11.715,11.715,0,0,1,49.23,59.489H22.663A11.715,11.715,0,0,1,12.616,53.8a25.378,25.378,0,0,1,0-26.112L16.029,22" transform="translate(0.372 2.603)"/><path class="au" d="M52.113,22H16.029l-3.413,5.688a25.378,25.378,0,0,0,0,26.114A11.606,11.606,0,0,0,14,55.622a11.68,11.68,0,0,0,2.812.351H43.37a11.715,11.715,0,0,0,10.046-5.688,25.378,25.378,0,0,0,0-26.113Z" transform="translate(0.372 2.603)"/><path class="av" d="M25.4,54.474l-7.916,7.916a4.971,4.971,0,1,1-7.03-7.03l4.123-4.123a11.715,11.715,0,0,0,8.083,3.237Z" transform="translate(0.372 7.619)"/><path class="av" d="M51.823,51.238a11.715,11.715,0,0,1-8.083,3.236H41l7.916,7.916a4.97,4.97,0,1,0,7.029-7.029l-4.123-4.123Z" transform="translate(5.862 7.619)"/><path class="av" d="M36.724,43.417a66.587,66.587,0,0,1,1.994,16.157,5.858,5.858,0,0,1-11.715,0A66.576,66.576,0,0,1,29,43.424,1.875,1.875,0,0,1,30.8,42h4.11A1.875,1.875,0,0,1,36.724,43.417Z" transform="translate(3.46 6.034)"/><path class="aw" d="M36.372,57.23A66.6,66.6,0,0,0,34.585,42H30.8a1.875,1.875,0,0,0-1.809,1.417A66.587,66.587,0,0,0,27,59.573a5.8,5.8,0,0,0,.733,2.782,5.814,5.814,0,0,0,8.64-5.125Z" transform="translate(3.46 6.034)"/><g transform="translate(14.645 1.638)"><ellipse class="as" cx="3.035" cy="3.468" rx="3.035" ry="3.468"/><ellipse class="as" cx="2.168" cy="1.734" rx="2.168" ry="1.734" transform="translate(17.34)"/><ellipse class="as" cx="2.168" cy="2.601" rx="2.168" ry="2.601" transform="translate(41.617 1.734)"/></g><path class="ax" d="M44.4,16V28.887a3.515,3.515,0,1,1-7.029,0V25.372a2.341,2.341,0,0,0-4.682,0v2.341a2.341,2.341,0,0,1-4.682,0V16" transform="translate(3.63 1.574)"/><path d="M65.4,44.414a9.372,9.372,0,1,0-5.454-17.6l-.867-1.447a4.682,4.682,0,0,0-1.842-8.994h-.1a8.306,8.306,0,0,0,.1-1.171A8.194,8.194,0,0,0,44.542,8.347a5.816,5.816,0,0,0-9.076,2.2,6.707,6.707,0,0,0-1.007.178,4.682,4.682,0,0,0-8.339,0,6.849,6.849,0,0,0-1.688-.212,7.036,7.036,0,0,0-6.924,5.858H17.4a4.682,4.682,0,0,0-1.842,8.993l-.867,1.447a9.364,9.364,0,1,0-5.454,17.6,26.544,26.544,0,0,0,3.749,12.564,12.784,12.784,0,0,0,1.35,1.811L11,62.121a6.142,6.142,0,0,0,8.686,8.688l7.573-7.574h3.1c-.027.78-.071,1.561-.071,2.341a7.029,7.029,0,1,0,14.059,0c0-.78-.044-1.561-.071-2.341h3.1l7.573,7.574a6.142,6.142,0,1,0,8.685-8.686L60.3,58.788a12.784,12.784,0,0,0,1.35-1.811A26.544,26.544,0,0,0,65.4,44.413ZM64.265,28.088a7.029,7.029,0,0,1,1.127,13.959,26.543,26.543,0,0,0-3.739-12.388l-.506-.844a6.986,6.986,0,0,1,3.121-.727Zm-4.682-7.029A2.341,2.341,0,0,1,57.243,23.4H50.207V18.718h7.029a2.341,2.341,0,0,1,2.344,2.341ZM39.667,23.4a3.515,3.515,0,0,0-3.515,3.515v2.341a1.171,1.171,0,1,1-2.341,0V18.715H47.863V30.431a2.341,2.341,0,1,1-4.682,0V26.916A3.515,3.515,0,0,0,39.663,23.4ZM24.433,12.858a4.65,4.65,0,0,1,1.925.425A1.171,1.171,0,0,0,28,12.429a2.336,2.336,0,0,1,4.6,0,1.171,1.171,0,0,0,1.64.854,4.66,4.66,0,0,1,1.83-.425c.056.008.191.021.246.021A1.171,1.171,0,0,0,37.445,12a3.479,3.479,0,0,1,6.091-1.355,1.171,1.171,0,0,0,.807.423,1.151,1.151,0,0,0,.867-.281,5.83,5.83,0,0,1,9.553,5.589H19.909a4.682,4.682,0,0,1,4.52-3.515ZM17.4,18.715H31.462V23.4H17.4a2.341,2.341,0,1,1,0-4.682ZM3.342,35.118a7.029,7.029,0,0,1,10.144-6.3l-.506.844A26.542,26.542,0,0,0,9.246,42.047a7.029,7.029,0,0,1-5.9-6.929Zm14.69,34.033a3.889,3.889,0,0,1-5.376,0,3.8,3.8,0,0,1,0-5.376l3.371-3.367a12.919,12.919,0,0,0,7.926,2.825ZM37.32,70.264a4.682,4.682,0,0,1-4.682-4.682,65.491,65.491,0,0,1,1.951-15.863.7.7,0,0,1,.68-.54h4.11a.7.7,0,0,1,.677.528A65.517,65.517,0,0,1,42.01,65.58a4.682,4.682,0,0,1-4.682,4.682Zm5-21.127a3.035,3.035,0,0,0-2.948-2.3h-4.11a3.035,3.035,0,0,0-2.948,2.3,67.831,67.831,0,0,0-1.848,11.754H24.037a10.6,10.6,0,0,1-9.042-5.115,24.207,24.207,0,0,1,0-24.907l3.072-5.115h13.4v3.515a3.515,3.515,0,1,0,7.029,0V26.928a1.171,1.171,0,1,1,2.341,0v3.515a4.686,4.686,0,0,0,9.372,0V25.761h6.373l3.072,5.115a24.207,24.207,0,0,1,0,24.907A10.6,10.6,0,0,1,50.606,60.9H44.172a67.833,67.833,0,0,0-1.848-11.761ZM63.093,66.464a3.8,3.8,0,0,1-6.485,2.688l-5.922-5.917a12.919,12.919,0,0,0,7.926-2.819l3.368,3.369a3.819,3.819,0,0,1,1.112,2.679Z" transform="translate(-1.002 0.03)"/><path d="M16.682,10.374A4.682,4.682,0,1,0,13.368,9a4.682,4.682,0,0,0,3.314,1.374Zm0-7.029a2.337,2.337,0,1,1-1.656.684,2.341,2.341,0,0,1,1.656-.684Z" transform="translate(0.887 -1)"/><path d="M30.515,8.029A3.515,3.515,0,1,0,27,4.514a3.515,3.515,0,0,0,3.515,3.515Zm0-4.682a.485.485,0,1,1,0-.006Z" transform="translate(3.46 -0.999)"/><path d="M51.515,10.029A3.515,3.515,0,1,0,48,6.514a3.515,3.515,0,0,0,3.515,3.515Zm0-4.682a.485.485,0,1,1,0-.006Z" transform="translate(7.062 -0.656)"/></g></g></g></g><g transform="translate(1322.37 3732.58)"><path class="b" d="M10,0H374a10,10,0,0,1,10,10V138a0,0,0,0,1,0,0H0a0,0,0,0,1,0,0V10A10,10,0,0,1,10,0Z" transform="translate(-0.37 0.419)"/><g transform="translate(146.478 22.262)"><ellipse class="a" cx="45.085" cy="42.051" rx="45.085" ry="42.051" transform="translate(0 13.001)"/><g transform="translate(7.314)"><g transform="translate(1.308 1.333)"><g transform="translate(7.416)"><path class="ay" d="M232.878,16.957H219.873V10.635A3.135,3.135,0,0,1,223.006,7.5h6.738a3.135,3.135,0,0,1,3.135,3.135Z" transform="translate(-197.248 -7.5)"/><g transform="translate(0 9.5)"><path class="az" d="M128.593,127.671V116.92H114.936v10.751a1.064,1.064,0,0,1-.786,1.027,29.124,29.124,0,1,0,15.228,0,1.064,1.064,0,0,1-.786-1.027Z" transform="translate(-92.638 -106.962)"/><path class="ba" d="M247.619,128.693a1.064,1.064,0,0,1-.786-1.027V116.915h-7.11v10.751a1.064,1.064,0,0,0,.786,1.027,29.061,29.061,0,0,1-4.058,56.913,29.448,29.448,0,0,0,3.555.216,29.064,29.064,0,0,0,7.614-57.13Z" transform="translate(-210.878 -106.961)"/><path class="bb" d="M215.091,70.885H197.275a1.962,1.962,0,0,1-1.962-1.962V62.894a1.962,1.962,0,0,1,1.962-1.962h17.816a1.962,1.962,0,0,1,1.962,1.962v6.03A1.961,1.961,0,0,1,215.091,70.885Z" transform="translate(-177.057 -60.932)"/><path class="bc" d="M273.663,60.932h-7.11a1.962,1.962,0,0,1,1.962,1.962v6.03a1.962,1.962,0,0,1-1.962,1.962h7.11a1.961,1.961,0,0,0,1.962-1.962v-6.03A1.962,1.962,0,0,0,273.663,60.932Z" transform="translate(-235.628 -60.932)"/><g transform="translate(5.335 43.204)"><g transform="translate(0)"><path class="bd" d="M123.557,303.925a23.794,23.794,0,1,0,45.727,0Z" transform="translate(-122.625 -303.925)"/></g><g transform="translate(6.714 5.29)"><ellipse class="be" cx="2.96" cy="2.954" rx="2.96" ry="2.954" transform="translate(0 4.075)"/><ellipse class="be" cx="4.622" cy="4.613" rx="4.622" ry="4.613" transform="translate(19.237 8.627)"/><ellipse class="be" cx="2.96" cy="2.954" rx="2.96" ry="2.954" transform="translate(29.648 0)"/></g></g></g></g><g transform="translate(0 7.404)"><path class="bf" d="M358.871,79.817l2.73,7.242,7.242,2.73L361.6,92.52l-2.73,7.242-2.73-7.242-7.24-2.73,7.242-2.73Z" transform="translate(-295.92 -74.363)"/><path class="bf" d="M104.051,171.107l2.488,6.6,6.6,2.488-6.6,2.488-2.488,6.6-2.488-6.6-6.6-2.488,6.6-2.488Z" transform="translate(-87.132 -149.422)"/><path class="bf" d="M58.136,49.143l1.976,5.24,5.24,1.976-5.24,1.976-1.976,5.24-1.976-5.24-5.24-1.977,5.24-1.976Z" transform="translate(-50.92 -49.143)"/></g></g><g transform="translate(0)"><path d="M123.769,31.337V22.12h.746a3.3,3.3,0,0,0,3.295-3.295V12.8A3.3,3.3,0,0,0,124.515,9.5h-1.071V4.472A4.473,4.473,0,0,0,118.977,0h-6.738a4.473,4.473,0,0,0-4.468,4.468V9.5H106.7a3.3,3.3,0,0,0-3.295,3.295v6.03a3.3,3.3,0,0,0,3.295,3.295h.747v9.216a30.265,30.265,0,0,0-8.293,3.712l-1.921-5.1a1.348,1.348,0,0,0-2.5,0l-2.275,6.035-6.035,2.275a1.348,1.348,0,0,0,0,2.5l4.71,1.776a30.438,30.438,0,0,0,40.83,43.748,1.334,1.334,0,0,0-1.432-2.25A27.755,27.755,0,0,1,93.009,44.489l1.728,4.58a1.348,1.348,0,0,0,2.5,0l2.275-6.035,6.035-2.275a1.348,1.348,0,0,0,0-2.5L101.5,36.737a27.589,27.589,0,0,1,6.845-2.88,2.4,2.4,0,0,0,1.772-2.315V22.121h10.989v9.421a2.4,2.4,0,0,0,1.772,2.315A27.715,27.715,0,0,1,136.4,79.043a1.334,1.334,0,1,0,1.994,1.773,30.382,30.382,0,0,0-14.615-49.48ZM110.438,4.468a1.8,1.8,0,0,1,1.8-1.8h6.738a1.8,1.8,0,0,1,1.8,1.8v4.99h-10.34ZM98,40.75a1.333,1.333,0,0,0-.78.78l-1.241,3.29-1.237-3.29a1.333,1.333,0,0,0-.78-.78l-3.287-1.24,3.289-1.24a1.334,1.334,0,0,0,.78-.78l1.241-3.29,1.241,3.29a1.334,1.334,0,0,0,.78.78l3.29,1.241Zm8.7-21.3a.629.629,0,0,1-.629-.629V12.8a.629.629,0,0,1,.629-.629h17.816a.629.629,0,0,1,.628.629v6.03a.629.629,0,0,1-.628.629Z" transform="translate(-77.758)"/><path d="M127.447,296.425H117.39a1.334,1.334,0,0,0-1.281.963,25.127,25.127,0,1,0,48.293,0,1.334,1.334,0,0,0-1.281-.963H134.544a1.334,1.334,0,0,0,0,2.667h27.544a22.46,22.46,0,1,1-43.675,0h9.034a1.334,1.334,0,0,0,0-2.667Z" transform="translate(-102.4 -243.721)"/><path d="M152.894,353.384a4.293,4.293,0,1,0,4.293-4.287A4.293,4.293,0,0,0,152.894,353.384Zm5.92,0a1.627,1.627,0,1,1-1.627-1.62A1.626,1.626,0,0,1,158.814,353.384Z" transform="translate(-133.456 -287.028)"/><path d="M267.049,374.7A5.946,5.946,0,1,0,273,380.646a5.946,5.946,0,0,0-5.955-5.946Zm0,9.225a3.279,3.279,0,1,1,3.289-3.279,3.279,3.279,0,0,1-3.289,3.279Z" transform="translate(-222.418 -308.077)"/><path d="M328.23,330.463a4.293,4.293,0,1,0-4.293,4.287,4.293,4.293,0,0,0,4.293-4.287Zm-5.92,0a1.627,1.627,0,1,1,1.627,1.621,1.627,1.627,0,0,1-1.627-1.621Z" transform="translate(-270.557 -268.182)"/><path d="M363.27,82.494l-6.676-2.514L354.079,73.3a1.348,1.348,0,0,0-2.5,0L349.07,79.98l-6.676,2.514a1.348,1.348,0,0,0,0,2.5L349.07,87.5l2.514,6.676a1.348,1.348,0,0,0,2.5,0l2.514-6.676,6.676-2.514a1.348,1.348,0,0,0,0-2.5Zm-8.183,2.73a1.333,1.333,0,0,0-.78.78l-1.483,3.933L351.341,86a1.334,1.334,0,0,0-.78-.78l-3.933-1.483,3.933-1.483a1.333,1.333,0,0,0,.78-.78l1.483-3.933,1.483,3.933a1.334,1.334,0,0,0,.78.78l3.933,1.483Z" transform="translate(-288.565 -59.578)"/><path d="M52.092,58.86a1.333,1.333,0,0,0,1.248-.867L55.1,53.317l4.676-1.763a1.348,1.348,0,0,0,0-2.5L55.1,47.3,53.34,42.621a1.348,1.348,0,0,0-2.5,0L49.082,47.3,44.4,49.063a1.348,1.348,0,0,0,0,2.5l4.676,1.763L50.84,58a1.334,1.334,0,0,0,1.248.867Zm-1.505-7.821-1.931-.727,1.931-.727a1.333,1.333,0,0,0,.78-.78l.727-1.93.727,1.93a1.333,1.333,0,0,0,.78.78l1.931.727-1.931.727a1.334,1.334,0,0,0-.78.78l-.73,1.927-.727-1.93a1.334,1.334,0,0,0-.782-.778Z" transform="translate(-43.564 -34.357)"/></g></g></g></g><g transform="translate(416.706 2934.685)"><rect class="bg" width="1376" height="96" transform="translate(0.294 0.315)"/><text class="bh" transform="translate(600.026 58.81)"><tspan x="0" y="0">Farming Labs</tspan></text><g transform="translate(1093.521 27.684)"><rect class="bi" width="155" height="40" rx="20" transform="translate(2.773 1.631)"/><g class="i" transform="translate(-0.227 -0.368)"><rect class="bz" width="155" height="40" rx="20"/><rect class="bk" x="0.5" y="0.5" width="154" height="39" rx="19.5"/></g><text class="bj" transform="translate(32.773 23.632)"><tspan x="0" y="0">Connect Wallet</tspan></text></g></g><rect class="bk" width="1376" height="936" transform="translate(417 2935)"/><g transform="translate(128 2934.685)"><rect class="bl" width="293" height="936" transform="translate(0 0.315)"/><g transform="translate(25.142 167.798)"><path class="bm" d="M5100.99,7001.52h243.074" transform="translate(-5100.99 -6756.152)"/><path class="bm" d="M5100.99,7001.52h243.074" transform="translate(-5100.99 -7001.52)"/><path class="bm" d="M5100.99,7001.52h243.074" transform="translate(-5100.557 -6467.435)"/><path class="bm" d="M5100.99,7001.52h243.074" transform="translate(-5100.99 -6308.77)"/></g><g transform="translate(0 220.306)"><rect class="bn" width="293" height="48" transform="translate(0 0.01)"/><rect class="bo" width="3" height="48" transform="translate(0 0.01)"/><g transform="translate(45.952 14)"><text class="bp" transform="translate(32.048 15.01)"><tspan x="0" y="0">Farm</tspan></text><g transform="translate(0 2.338)"><path class="bq" d="M76.72,8.183a2.814,2.814,0,0,0-1.64-.965A2.223,2.223,0,0,0,76.309,4.8a2.394,2.394,0,0,0-.343-1.071A2.148,2.148,0,0,0,75.192,3a4.259,4.259,0,0,0-1.056-.424,8.358,8.358,0,0,0-1.313-.211V0H71.377V2.3q-.375,0-1.144.019V0H68.79V2.363q-.31.01-.91.01l-1.987-.01V3.9h1.04a.745.745,0,0,1,.834.637V7.227a.954.954,0,0,1,.15.01h-.15V11a.5.5,0,0,1-.544.478h-1.04l-.29,1.716h1.874l.516,0,.506,0V15.6h1.444V13.236q.394.01,1.144.01V15.6h1.444v-2.39a11.219,11.219,0,0,0,1.364-.14,5.549,5.549,0,0,0,1.138-.323,3.073,3.073,0,0,0,.909-.549,2.589,2.589,0,0,0,.607-.834,3.548,3.548,0,0,0,.3-1.172,2.774,2.774,0,0,0-.423-2.007ZM70.261,4l.37,0,.506-.01q.2,0,.544.023a5.175,5.175,0,0,1,.577.075,3.208,3.208,0,0,1,.515.154,1.4,1.4,0,0,1,.45.26,1.3,1.3,0,0,1,.286.394,1.229,1.229,0,0,1,.117.548,1.3,1.3,0,0,1-.087.479.9.9,0,0,1-.253.361,2.569,2.569,0,0,1-.347.253,1.586,1.586,0,0,1-.454.173q-.277.066-.483.1a3.945,3.945,0,0,1-.516.051l-.469.019q-.16.005-.434,0l-.323,0V4h0ZM74.2,10.386a1.334,1.334,0,0,1-.23.375,1.3,1.3,0,0,1-.37.281,3.164,3.164,0,0,1-.445.2,3.581,3.581,0,0,1-.52.131q-.305.056-.535.08t-.549.037q-.319.014-.5.014t-.45,0l-.347,0V8.323q.075,0,.446-.01t.607-.01q.234,0,.647.028a5.523,5.523,0,0,1,.694.087,4.558,4.558,0,0,1,.614.173,1.782,1.782,0,0,1,.539.286,1.411,1.411,0,0,1,.347.434,1.34,1.34,0,0,1,.052,1.078Z" transform="translate(-65.893)"/></g></g></g><g transform="translate(0 423.218)"><g class="br" transform="translate(0 0)"><rect class="bg" width="293" height="47" transform="translate(0 0.097)"/><rect class="bs" width="3" height="47" transform="translate(0 0.097)"/></g><g transform="translate(45.952 15)"><text class="bt" transform="translate(32.048 14.098)"><tspan x="0" y="0">Discord</tspan></text><g transform="translate(0 0.753)"><path class="bq" d="M2.83,15.036H12.945l-.483-1.561,4.144,3.555V1.756A1.883,1.883,0,0,0,14.728,0H2.834A1.811,1.811,0,0,0,1,1.759v11.52a1.775,1.775,0,0,0,1.83,1.757Zm7.482-11-.023.009.009-.009Zm-5.411.9a4.376,4.376,0,0,1,2.506-.9l.1.1A5.163,5.163,0,0,0,5.189,5.217a8.055,8.055,0,0,1,7.18.047,5.834,5.834,0,0,0-2.216-1.091l.132-.13a4.38,4.38,0,0,1,2.468.894,10.951,10.951,0,0,1,1.308,4.98,3.78,3.78,0,0,1-2.788,1.224s-.335-.379-.573-.709a2.861,2.861,0,0,0,1.589-1c-2.254,1.418-4.223,1.2-6.584.238a.055.055,0,0,1-.043-.022h0a.057.057,0,0,0-.043-.022H5.575a2.4,2.4,0,0,0-.24-.145,2.847,2.847,0,0,0,1.542,1c-.291.333-.58.711-.58.711A3.155,3.155,0,0,1,3.6,9.912a10.976,10.976,0,0,1,1.3-4.98Z" transform="translate(-1 0)"/><path class="bq" d="M13.934,11.994a.954.954,0,0,0,0-1.9h0a.949.949,0,0,0,0,1.9Z" transform="translate(-4.494 -2.934)"/><path class="bq" d="M9.316,11.994a.954.954,0,0,0,0-1.9h0a.949.949,0,0,0,0,1.9Z" transform="translate(-3.151 -2.934)"/></g></g></g><g transform="translate(0 640.197)"><g class="br" transform="translate(0 0)"><rect class="bg" width="293" height="48" transform="translate(0 0.119)"/><rect class="bs" width="3" height="48" transform="translate(0 0.119)"/></g><g transform="translate(45.952 14.001)"><text class="bp" transform="translate(32.048 15.118)"><tspan x="0" y="0">Github</tspan></text><path class="bq" d="M7.69.5A7.623,7.623,0,0,0,0,8.057a7.569,7.569,0,0,0,5.258,7.169c.384.071.525-.163.525-.363,0-.179-.006-.655-.01-1.285-2.139.456-2.59-1.014-2.59-1.014a2.014,2.014,0,0,0-.856-1.105c-.694-.468.054-.459.054-.459a1.608,1.608,0,0,1,1.177.78,1.656,1.656,0,0,0,2.24.629A1.6,1.6,0,0,1,6.286,11.4c-1.708-.189-3.5-.838-3.5-3.734a2.887,2.887,0,0,1,.792-2.028,2.644,2.644,0,0,1,.067-2s.644-.2,2.115.775a7.37,7.37,0,0,1,3.845,0c1.462-.978,2.1-.775,2.1-.775a2.717,2.717,0,0,1,.077,2,2.9,2.9,0,0,1,.79,2.027c0,2.9-1.8,3.542-3.509,3.728a1.793,1.793,0,0,1,.52,1.4c0,1.011-.01,1.821-.01,2.07,0,.2.134.434.529.359a7.543,7.543,0,0,0,5.278-7.16A7.625,7.625,0,0,0,7.69.5Z" transform="translate(0 2.718)"/></g></g><g transform="translate(0 553.808)"><g class="br" transform="translate(0 0)"><rect class="bg" width="293" height="48" transform="translate(0 -0.492)"/><rect class="bs" width="3" height="48" transform="translate(0 -0.492)"/></g><g transform="translate(45.952 13.001)"><text class="bt" transform="translate(32.048 13.507)"><tspan x="0" y="0">Medium</tspan></text><path class="bq" d="M13.51,3.866l1.171-1.121V2.5H10.624L7.731,9.7,4.437,2.5H.186v.245L1.554,4.393a.574.574,0,0,1,.186.479v6.472a.738.738,0,0,1-.2.642L0,13.858V14.1H4.371v-.245L2.829,11.988a.761.761,0,0,1-.212-.642v-5.6L6.453,14.1H6.9l3.3-8.355V12.4c0,.173,0,.212-.115.327L8.9,13.877v.246h5.757v-.245l-1.144-1.12a.34.34,0,0,1-.131-.327V4.194a.339.339,0,0,1,.13-.327Z" transform="translate(0 3.441)"/></g></g><g transform="translate(0 466.414)"><g class="br" transform="translate(0 0)"><rect class="bg" width="293" height="48" transform="translate(0 -0.099)"/><rect class="bs" width="3" height="48" transform="translate(0 -0.099)"/></g><g transform="translate(45.952 14)"><text class="bt" transform="translate(32.048 13.901)"><tspan x="0" y="0">Telegram</tspan></text><g transform="translate(0 3.177)"><path class="af" d="M5.61,12.62,19.435,7.29c.642-.231,1.2.157.994,1.127h0L18.077,19.505c-.173.786-.642.977-1.3.607L13.2,17.471l-1.729,1.666a.9.9,0,0,1-.723.353L11,15.841l6.644-6c.29-.255-.064-.4-.446-.145L8.987,14.863l-3.54-1.1c-.768-.244-.785-.768.162-1.138Z" transform="translate(-4.883 -7.225)"/></g></g></g><g transform="translate(0 510.611)"><g class="br" transform="translate(0 0)"><rect class="bg" width="293" height="47" transform="translate(0 -0.295)"/><rect class="bs" width="3" height="47" transform="translate(0 -0.295)"/></g><g transform="translate(45.952 14)"><text class="bp" transform="translate(32.048 14.704)"><tspan x="0" y="0">Twitter</tspan></text><g transform="translate(0 3.118)"><g transform="translate(0 0)"><path class="bq" d="M16.878,49.624a7.214,7.214,0,0,1-1.994.546,3.44,3.44,0,0,0,1.522-1.909,6.915,6.915,0,0,1-2.194.838A3.46,3.46,0,0,0,8.23,51.465a3.563,3.563,0,0,0,.08.789,9.8,9.8,0,0,1-7.132-3.619A3.461,3.461,0,0,0,2.24,53.259,3.417,3.417,0,0,1,.68,52.833v.038a3.476,3.476,0,0,0,2.774,3.4,3.453,3.453,0,0,1-.907.114,3.059,3.059,0,0,1-.655-.059,3.493,3.493,0,0,0,3.224,2.409,6.953,6.953,0,0,1-4.29,1.474A6.478,6.478,0,0,1,0,60.162a9.741,9.741,0,0,0,5.308,1.553,9.781,9.781,0,0,0,9.848-9.847c0-.153-.005-.3-.013-.447A6.9,6.9,0,0,0,16.878,49.624Z" transform="translate(0 -48.007)"/></g></g></g></g><g transform="translate(0 597.003)"><g class="br" transform="translate(0 0)"><rect class="bg" width="293" height="48" transform="translate(0 0.313)"/><rect class="bs" width="3" height="48" transform="translate(0 0.313)"/></g><g transform="translate(45.952 15)"><text class="bt" transform="translate(32.048 14.312)"><tspan x="0" y="0">Youtube</tspan></text><g transform="translate(0 3.68)"><path class="bq" d="M17.347,1.94A2.219,2.219,0,0,0,15.787.38,51.786,51.786,0,0,0,8.856,0a53.844,53.844,0,0,0-6.93.365A2.265,2.265,0,0,0,.365,1.94,23.382,23.382,0,0,0,0,6.2a23.3,23.3,0,0,0,.365,4.261,2.22,2.22,0,0,0,1.561,1.561,52,52,0,0,0,6.93.379,53.837,53.837,0,0,0,6.93-.365,2.219,2.219,0,0,0,1.561-1.561,23.383,23.383,0,0,0,.365-4.261,22.2,22.2,0,0,0-.365-4.274Zm0,0" transform="translate(0.001)"/><path class="bu" d="M204.969,107.8l4.611-2.656-4.611-2.656Zm0,0" transform="translate(-197.878 -98.939)"/></g></g></g><g transform="translate(0 713.524)"><g class="br" transform="translate(0 0)"><rect class="bg" width="293" height="47" transform="translate(0 -0.209)"/><rect class="bs" width="3" height="47" transform="translate(0 -0.209)"/></g><g transform="translate(45.955 13)"><text class="bt" transform="translate(32.045 13.791)"><tspan x="0" y="0">Litepaper</tspan></text><g transform="translate(0 1.447)"><path class="bq" d="M60.624,2.15V0h-8.6L49.855,2.089V13.4h2.233v2.15H62.858V2.15ZM52.336.987v1.4H50.877ZM50.8,3.3h2.483V.911h6.4V12.485H50.8ZM61.912,14.638h-8.88V13.4h7.593V3.061h1.287Z" transform="translate(-49.855)"/><path class="bq" d="M123.019,138.734h5.927v.911h-5.927Z" transform="translate(-120.636 -134.521)"/><path class="bq" d="M123.019,198.734h5.927v.911h-5.927Z" transform="translate(-120.636 -192.699)"/><path class="bq" d="M123.019,258.734h5.927v.911h-5.927Z" transform="translate(-120.636 -250.877)"/></g></g></g><g transform="translate(0 801.315)"><g class="br" transform="translate(0 0)"><rect class="bg" width="293" height="47" transform="translate(0 0)"/><rect class="bs" width="3" height="47" transform="translate(0 0)"/></g><g transform="translate(45.952 13)"><text class="bp" transform="translate(32.048 15)"><tspan x="0" y="0">Audit</tspan></text><path class="bq" d="M12.21,1.356H9.493a2.211,2.211,0,0,0-4.075,0H2.662A2.1,2.1,0,0,0,.5,3.387V15.309a2.1,2.1,0,0,0,2.162,2.032h9.55a2.1,2.1,0,0,0,2.16-2.032V3.387A2.1,2.1,0,0,0,12.21,1.355ZM6.734,2.71V2.033a.722.722,0,0,1,1.441,0V2.71H9.616V4.03H5.292V2.71Zm6.2,12.6a.7.7,0,0,1-.719.677H2.662a.7.7,0,0,1-.72-.677V3.387a.7.7,0,0,1,.72-.677H3.851V5.385h7.207V2.71h1.153a.7.7,0,0,1,.72.677ZM10.2,7.791l1.066.912L6.651,13.472,3.6,10.7l1-.974,1.98,1.8Zm0,0" transform="translate(-0.5 2.449)"/></g></g><g transform="translate(0 757.315)"><g class="br" transform="translate(0 0)"><rect class="bg" width="293" height="48" transform="translate(0 0.001)"/><rect class="bs" width="3" height="48" transform="translate(0 0.001)"/></g><g transform="translate(45.952 14)"><text class="bp" transform="translate(32.048 15)"><tspan x="0" y="0">FAQ</tspan></text><g transform="translate(0 3.484)"><g transform="translate(0 0)"><circle class="bq" cx="0.763" cy="0.763" r="0.763" transform="translate(7.054 10.794)"/><path class="bq" d="M7.817,0a7.813,7.813,0,1,0,5.529,2.288A7.817,7.817,0,0,0,7.817,0Zm0,14.413a6.589,6.589,0,1,1,4.665-1.93,6.6,6.6,0,0,1-4.665,1.93Z" transform="translate(0 0)"/><path class="bq" d="M178.443,128.5A2.446,2.446,0,0,0,176,130.943a.611.611,0,1,0,1.222,0,1.222,1.222,0,1,1,1.222,1.222.607.607,0,0,0-.607.607V134.3a.611.611,0,0,0,1.222,0V133.3a2.443,2.443,0,0,0-.607-4.809Z" transform="translate(-170.625 -124.575)"/></g></g></g></g><g transform="translate(0 872.315)"><g class="br" transform="translate(0 0)"><rect class="bg" width="293" height="48" transform="translate(0 0)"/><rect class="bs" width="3" height="48" transform="translate(0 0)"/></g><g transform="translate(45.952 14.999)"><text class="bp" transform="translate(32.048 15.001)"><tspan x="0" y="0">Token</tspan></text><path class="bq" d="M6.5,0A6.676,6.676,0,0,0,0,6.5a6.676,6.676,0,0,0,6.5,6.5,6.676,6.676,0,0,0,6.5-6.5A6.676,6.676,0,0,0,6.5,0Zm5.387,5.961H10.8A4.335,4.335,0,0,0,7.045,2.2V1.116a5.706,5.706,0,0,1,4.845,4.845ZM6.5,9.754A3.251,3.251,0,1,1,9.754,6.5,3.251,3.251,0,0,1,6.5,9.754ZM5.961,1.116V2.2A4.335,4.335,0,0,0,2.2,5.961H1.116A5.706,5.706,0,0,1,5.961,1.116ZM1.116,7.045H2.2A4.335,4.335,0,0,0,5.961,10.8v1.09A5.706,5.706,0,0,1,1.116,7.045Zm5.929,4.845V10.8A4.335,4.335,0,0,0,10.8,7.045h1.09A5.706,5.706,0,0,1,7.045,11.889Zm0,0" transform="translate(0 1.846)"/></g></g><g transform="translate(0 350.895)"><g class="br" transform="translate(0 0)"><rect class="bg" width="293" height="48" transform="translate(0 0.421)"/><rect class="bs" width="3" height="48" transform="translate(0 0.421)"/></g><g transform="translate(45.866 14)"><text class="bp" transform="translate(32.134 15.421)"><tspan x="0" y="0">Bridge</tspan></text><path class="bv" d="M15.224,1.756V0H14.3V1.756h-.985V2.774a4.942,4.942,0,0,1-4.959,4.4A4.987,4.987,0,0,1,3.4,2.68V1.756H2.407V0H1.486V1.756H.5V15.741H3.4V12.783h9.919v2.957h2.9V1.756ZM5.182,9.884H3.4V5.376A5.927,5.927,0,0,0,5.182,7.17Zm2.71,0H6.106V7.654a5.836,5.836,0,0,0,1.787.429Zm2.71,0H8.816v-1.8A5.836,5.836,0,0,0,10.6,7.654Zm2.71,0H11.528V7.17a5.927,5.927,0,0,0,1.787-1.79Z" transform="translate(-0.5 1.999)"/></g></g><g transform="translate(0 307.698)"><g class="br" transform="translate(0 0)"><rect class="bg" width="293" height="47" transform="translate(0 -0.383)"/><rect class="bs" width="3" height="47" transform="translate(0 -0.383)"/></g><g transform="translate(45.866 13)"><text class="bp" transform="translate(32.134 14.617)"><tspan x="0" y="0">Stake</tspan></text><g transform="translate(0 1.825)"><path class="bq" d="M14.7,4.352,11.608.173a.434.434,0,0,0-.694,0l-3.1,4.178a.434.434,0,0,0,.347.694H9.277V7.136a1.582,1.582,0,0,0-.727-.173H7.78a1.594,1.594,0,0,0-1.594,1.59v.9a1.582,1.582,0,0,0-.727-.173H4.686a1.6,1.6,0,0,0-1.593,1.594v.9a1.584,1.584,0,0,0-.727-.173H1.593A1.6,1.6,0,0,0,0,13.193v1.16a.434.434,0,0,0,.434.434H12.806a.434.434,0,0,0,.434-.434V5.043h1.113a.434.434,0,0,0,.347-.694ZM.867,13.193a.727.727,0,0,1,.727-.727h.773a.727.727,0,0,1,.727.727v.727H.867Zm3.094,0V10.873a.727.727,0,0,1,.727-.727h.775a.727.727,0,0,1,.727.727V13.92H3.96Zm3.094-2.32V8.553a.727.727,0,0,1,.727-.727h.773a.727.727,0,0,1,.727.727V13.92H7.053Zm5.752-6.7a.434.434,0,0,0-.434.434V13.92H10.144V4.609a.434.434,0,0,0-.434-.434H9.024L11.257,1.16l2.233,3.015Zm0,0" transform="translate(0 0)"/></g></g></g><g transform="translate(102.318 50.162)"><g transform="translate(0 0)"><g transform="translate(37.392)"><path class="bs" d="M315.12,388.975c-7.607-7.216-17.432-7.434-27.431-.479h0c-4.3,3-15.953,3.564-15.953,3.564h11.52a26.59,26.59,0,0,0,8.694-2.13c8.129-3.956,16.172-2.608,21.562,3.956a16.743,16.743,0,0,1,.52,20.823c-5.521,7.043-13.607,8.564-21.954,4.608a8.846,8.846,0,0,0-.954-.391c-.043,0-.087-.043-.13-.087a2.859,2.859,0,0,0-.479-.173c-.26-.087-.565-.218-.913-.347-.043,0-.087,0-.087-.043a9.431,9.431,0,0,0-1.04-.3c-.867-.26-1.7-.479-2.565-.652-1.261-.3-2.478-.52-3.521-.694-2.478-.391-4.217-.479-4.217-.479H271.3s10,.434,14.913,2.912c.391.218.739.433,1.086.607,14.306,8.347,23.17,7.347,30.387-2.26a21.155,21.155,0,0,0-2.566-28.432Z" transform="translate(-271.3 -383.418)"/><path class="bs" d="M341.086,427.714c4.043.391,7.216-1.3,9.955-4.956a13.418,13.418,0,0,0-1.608-18.041A11.935,11.935,0,0,0,340,401.24a12.015,12.015,0,0,1,7.173,3.478,13.426,13.426,0,0,1,1.608,18.041C346.564,425.715,344.086,427.41,341.086,427.714Z" transform="translate(-310.135 -393.466)"/></g><g transform="translate(0 9.583)"><path class="bs" d="M240.665,446.7s-2.174.13-5.3.607c-1.347.218-2.869.52-4.434.867-1.04.218-2.13.52-3.217.826l-1.3.391a.159.159,0,0,0-.13.043c-.479.173-.867.3-1.174.433a2.8,2.8,0,0,0-.607.26c-.087.043-.087.087-.173.087-.434.173-.826.347-1.214.52-10.52,4.956-20.737,3.043-27.692-5.826-5.956-7.564-5.651-18.52.652-26.257,6.782-8.26,16.907-9.955,27.17-5,3.348,1.608,7.173,2.217,10.955,2.7h14.52s-14.739-.694-20.171-4.477h0c-12.607-8.781-25-8.477-34.6.607a26.767,26.767,0,0,0-3.173,35.952c9.086,12.129,20.258,13.389,38.342,2.826.434-.26.913-.52,1.347-.78,6.173-3.13,18.78-3.7,18.78-3.7h-8.573Z" transform="translate(-185.275 -405.469)"/><path class="bs" d="M222.785,427.7a14.815,14.815,0,0,0-11.911,4.347,16.963,16.963,0,0,0-2,22.777c3.478,4.652,7.434,6.782,12.563,6.26-3.782-.391-6.912-2.521-9.738-6.26a17.013,17.013,0,0,1,2-22.779,15.109,15.109,0,0,1,9.086-4.346Z" transform="translate(-196.651 -417.992)"/></g><g transform="translate(31.042 23.119)"><g transform="translate(0 0)"><path class="bs" d="M279.779,452.12c-.479-1.652-1.7-3.087-2.608-4.738l.043-.043c2.478-1.826,3.348-4.261,2.521-6.782-.826-2.478-3.043-3.956-6.086-3.956H257.826v2.087h15.823a6.075,6.075,0,0,1,1.783.218A3.736,3.736,0,0,1,278,442.861a3.841,3.841,0,0,1-3.913,3.3c-3.3.043-6.608,0-9.912,0-.52,0-1.04.043-1.565.087v1.913h1.7c2.565,0,5.129-.087,7.651.043a6.1,6.1,0,0,1,6.086,6.434,6.245,6.245,0,0,1-6.26,5.782c-4.434-.087-8.912-.043-13.346,0-1.826,0-1.869.043-1.652,2.087h1.435c4.825,0,9.651.173,14.432-.087a8.075,8.075,0,0,0,7.13-10.3Z" transform="translate(-256.691 -436.6)"/><path class="bs" d="M262.48,458.916c3.043.087,6.13,0,9.172.043.913,0,1.608.347,1.652,1.347.043,1.04-.607,1.387-1.565,1.347-.434,0-.913.087-1.347.087H256.829V463.7h4.608c3.564,0,7.086.043,10.651,0a3.381,3.381,0,0,0,.391-6.739,10.256,10.256,0,0,0-1.652-.087c-2.869,0-5.738.043-8.564-.087a3.641,3.641,0,0,1-1.086-7.043,6.437,6.437,0,0,1,2.044-.26c3.652-.043,7.3,0,11,0v-2.044c-4.173,0-8.26-.13-12.3.043a5.134,5.134,0,0,0-4.825,3.913,5.67,5.67,0,0,0,5.39,7.519Z" transform="translate(-256.738 -442.701)"/></g></g></g></g><g transform="translate(0 177.112)"><rect class="bn" width="293" height="48" transform="translate(0 0.204)"/><g transform="translate(45.952 14)"><text class="bw" transform="translate(32.048 14.203)"><tspan x="0" y="0">Overview</tspan></text><g transform="translate(0 3.829)"><g transform="translate(0 0)"><path class="bx" d="M13.59,19.745H1.15A1.151,1.151,0,0,0,0,20.895v8.7a1.151,1.151,0,0,0,1.15,1.15H6.936V31.6H5.415v.867h3.91V31.6H7.8v-.854h5.786a1.151,1.151,0,0,0,1.151-1.15v-8.7a1.151,1.151,0,0,0-1.15-1.15Zm-12.441.867H13.59a.281.281,0,0,1,.281.281v6.923h-13V20.895a.281.281,0,0,1,.283-.281ZM13.59,29.875H1.15a.281.281,0,0,1-.283-.281v-.908H13.872V29.6a.281.281,0,0,1-.283.28Z" transform="translate(0 -19.745)"/></g></g></g><rect class="bo" width="3" height="48" transform="translate(0 0.204)"/></g><g transform="translate(0 263.501)"><g class="br" transform="translate(0 0)"><rect class="bg" width="293" height="48" transform="translate(0 -0.185)"/><rect class="bs" width="3" height="48" transform="translate(0 -0.185)"/></g><g transform="translate(45.951 14.999)"><text class="bt" transform="translate(32.048 13.815)"><tspan x="0" y="0">NFT Marketplace</tspan></text><g transform="translate(0 1.854)"><g transform="translate(0 0)"><path class="by" d="M145.42,218.936h-2.394a.362.362,0,0,0-.362.362V224a.362.362,0,0,0,.362.362h2.394a.362.362,0,0,0,.362-.362v-4.7A.362.362,0,0,0,145.42,218.936Zm-.362,4.7h-1.669v-3.971h1.668Z" transform="translate(-137.781 -211.336)"/><path class="by" d="M281.8,136.911h-2.412a.362.362,0,0,0-.362.362v7.543a.362.362,0,0,0,.362.362H281.8a.362.362,0,0,0,.362-.362v-7.543A.362.362,0,0,0,281.8,136.911Zm-.362,7.543h-1.686v-6.818h1.682Z" transform="translate(-269.407 -132.158)"/><path class="by" d="M8.556,269.613H6.144a.362.362,0,0,0-.362.362v2.937a.362.362,0,0,0,.362.362H8.556a.362.362,0,0,0,.362-.362v-2.937A.362.362,0,0,0,8.556,269.613Zm-.362,2.937H6.508v-2.211H8.194Z" transform="translate(-5.65 -260.254)"/><path class="by" d="M14.791.364a.309.309,0,0,0-.236-.127L11.255,0A.364.364,0,0,0,11.2.726l2.336.159L9.243,4.248,5.96,1.67a.362.362,0,0,0-.472.018L2.116,4.915a.362.362,0,0,0-.018.508.326.326,0,0,0,.272.127.362.362,0,0,0,.254-.108L5.761,2.427,9.007,4.984a.362.362,0,0,0,.453,0L14.1,1.372l-.181,2.254a.381.381,0,0,0,.347.381h.018a.362.362,0,0,0,.362-.326L14.882.617a.29.29,0,0,0-.091-.253Z" transform="translate(-2.002 0.001)"/></g></g></g></g></g><rect class="bk" width="293" height="936" transform="translate(128 2935)"/></g></svg>